<?xml version="1.0" encoding="UTF-8"?>
<svg width="122px" height="85px" viewBox="0 0 122 85" version="1.1" xmlns="http://www.w3.org/2000/svg" xmlns:xlink="http://www.w3.org/1999/xlink">
    <!-- Generator: Sketch 52.3 (67297) - http://www.bohemiancoding.com/sketch -->
    <title>YouTube_Logo_2017</title>
    <desc>Created with Sketch.</desc>
    <g id="Page-1" stroke="none" stroke-width="1" fill="none" fill-rule="evenodd">
        <g id="YouTube_Logo_2017" fill="#FF0000">
            <g id="Group">
                <path d="M118.9,13.3 C117.5,8.1 113.4,4 108.2,2.6 C98.7,0 60.7,0 60.7,0 C60.7,0 22.7,0 13.2,2.5 C8.1,3.9 3.9,8.1 2.5,13.3 C0,22.8 0,42.5 0,42.5 C0,42.5 0,62.3 2.5,71.7 C3.9,76.9 8,81 13.2,82.4 C22.8,85 60.7,85 60.7,85 C60.7,85 98.7,85 108.2,82.5 C113.4,81.1 117.5,77 118.9,71.8 C121.4,62.3 121.4,42.6 121.4,42.6 C121.4,42.6 121.5,22.8 118.9,13.3 Z" id="Path"></path>
            </g>
        </g>
        <g id="baseline-image-24px" transform="translate(37.000000, 19.000000)">
            <polygon id="Path" points="0 42 24 42 24 66 0 66"></polygon>
            <path d="M48,42.6666667 L48,5.33333333 C48,2.4 45.6,0 42.6666667,0 L5.33333333,0 C2.4,0 0,2.4 0,5.33333333 L0,42.6666667 C0,45.6 2.4,48 5.33333333,48 L42.6666667,48 C45.6,48 48,45.6 48,42.6666667 Z M15.5,28.25 L22.2857143,36.7783333 L31.7857143,24 L44,41 L6,41 L15.5,28.25 Z" id="Shape" fill="#FFFFFF" fill-rule="nonzero"></path>
        </g>
    </g>
</svg>